# xmcd
#
# Track frame offsets:
#	150
#	15661
#	39893
#	57760
#	75806
#	91581
#	109966
#	135988
#	149867
#	173353
#
# Disc length: 2494 seconds
#
# Revision: 7077976
# Processed by: cddbd v1.5.2PL0 Copyright (c) Steve Scherf et al.
# Submitted via: EZCDAudioConverter 8.2.2.1
#
DISCID=6b09bc0a
DTITLE=The Delines - The Imperial
DYEAR=2019
DGENRE=Country
TTITLE0=Cheer Up Charley
TTITLE1=The Imperial
TTITLE2=Where Are You Sonny?
TTITLE3=Let's Be Us Again
TTITLE4=Roll Back My Life
TTITLE5=Eddie and Polly
TTITLE6=Holly The Hustle
TTITLE7=That Old Haunted Place
TTITLE8=He Don't Burn For Me
TTITLE9=Waiting On The Blue
EXTD=
EXTT0=
EXTT1=
EXTT2=
EXTT3=
EXTT4=
EXTT5=
EXTT6=
EXTT7=
EXTT8=
EXTT9=
PLAYORDER=
